# xmcd
#
# Track frame offsets: 
#        150
#        11198
#        31043
#        46954
#        61856
#        80128
#        100647
#        112538
#        131235
#        149654
#
# Disc length: 2208 seconds
#
# Revision: 0
# Processed by: cddbd v1.5.2PL0 Copyright (c) Steve Scherf et al.
# Submitted via: ExactAudioCopy v0.99pb4
#
DISCID=7f089e0a
DTITLE=James Intveld - Have Faith
DYEAR=2008
DGENRE=Country
TTITLE0=Pretty World
TTITLE1=This Place Ain't What It Used to Be
TTITLE2=Let's G3t Started
TTITLE3=Something You Can't Buy
TTITLE4=A Woman's Touch
TTITLE5=Have Faith
TTITLE6=Motel Time
TTITLE7=If Tears Could Talk
TTITLE8=Small Town Boy
TTITLE9=Walk With Me
EXTD=
EXTT0=
EXTT1=
EXTT2=
EXTT3=
EXTT4=
EXTT5=
EXTT6=
EXTT7=
EXTT8=
EXTT9=
PLAYORDER=
